<mxfile host="app.diagrams.net" agent="Mozilla/5.0 (Windows NT 10.0; Win64; x64) AppleWebKit/537.36 (KHTML, like Gecko) Chrome/121.0.0.0 Safari/537.36" version="25.0.3">
  <diagram name="第 1 页" id="oD7By3A8fIQo6_YHiewK">
    <mxGraphModel dx="1434" dy="1955" grid="1" gridSize="10" guides="1" tooltips="1" connect="1" arrows="1" fold="1" page="1" pageScale="1" pageWidth="827" pageHeight="1169" math="0" shadow="0">
      <root>
        <mxCell id="0" />
        <mxCell id="1" parent="0" />
        <mxCell id="BCLAxjB97PcvfuDEVSwv-14" style="edgeStyle=orthogonalEdgeStyle;rounded=0;orthogonalLoop=1;jettySize=auto;html=1;exitX=0.5;exitY=1;exitDx=0;exitDy=0;entryX=0.5;entryY=0;entryDx=0;entryDy=0;fontSize=14;fontStyle=1" edge="1" parent="1" source="BCLAxjB97PcvfuDEVSwv-1" target="BCLAxjB97PcvfuDEVSwv-13">
          <mxGeometry relative="1" as="geometry" />
        </mxCell>
        <mxCell id="BCLAxjB97PcvfuDEVSwv-1" value="模型识别涉“fq”短彩信" style="rounded=0;whiteSpace=wrap;html=1;fontSize=14;fontStyle=1" vertex="1" parent="1">
          <mxGeometry x="230" y="50" width="120" height="60" as="geometry" />
        </mxCell>
        <mxCell id="BCLAxjB97PcvfuDEVSwv-4" style="edgeStyle=orthogonalEdgeStyle;rounded=0;orthogonalLoop=1;jettySize=auto;html=1;entryX=0.5;entryY=0;entryDx=0;entryDy=0;exitX=0.5;exitY=1;exitDx=0;exitDy=0;fontSize=14;fontStyle=1" edge="1" parent="1" source="BCLAxjB97PcvfuDEVSwv-43" target="BCLAxjB97PcvfuDEVSwv-1">
          <mxGeometry relative="1" as="geometry">
            <mxPoint x="290" y="20" as="sourcePoint" />
          </mxGeometry>
        </mxCell>
        <mxCell id="BCLAxjB97PcvfuDEVSwv-25" value="" style="edgeStyle=orthogonalEdgeStyle;rounded=0;orthogonalLoop=1;jettySize=auto;html=1;fontSize=14;fontStyle=1" edge="1" parent="1" source="BCLAxjB97PcvfuDEVSwv-7" target="BCLAxjB97PcvfuDEVSwv-24">
          <mxGeometry relative="1" as="geometry" />
        </mxCell>
        <mxCell id="BCLAxjB97PcvfuDEVSwv-7" value="爬取网址对应的页面" style="rounded=0;whiteSpace=wrap;html=1;fontSize=14;fontStyle=1" vertex="1" parent="1">
          <mxGeometry x="230" y="436" width="120" height="60" as="geometry" />
        </mxCell>
        <mxCell id="BCLAxjB97PcvfuDEVSwv-9" value="" style="endArrow=none;dashed=1;html=1;rounded=0;fontSize=14;fontStyle=1" edge="1" parent="1">
          <mxGeometry width="50" height="50" relative="1" as="geometry">
            <mxPoint x="50" y="410" as="sourcePoint" />
            <mxPoint x="680" y="410" as="targetPoint" />
          </mxGeometry>
        </mxCell>
        <mxCell id="BCLAxjB97PcvfuDEVSwv-10" value="外网" style="text;html=1;align=center;verticalAlign=middle;whiteSpace=wrap;rounded=0;fontSize=14;fontStyle=1" vertex="1" parent="1">
          <mxGeometry x="50" y="431" width="60" height="30" as="geometry" />
        </mxCell>
        <mxCell id="BCLAxjB97PcvfuDEVSwv-11" value="内网" style="text;html=1;align=center;verticalAlign=middle;whiteSpace=wrap;rounded=0;fontSize=14;fontStyle=1" vertex="1" parent="1">
          <mxGeometry x="60" y="-30" width="60" height="30" as="geometry" />
        </mxCell>
        <mxCell id="BCLAxjB97PcvfuDEVSwv-17" value="" style="edgeStyle=orthogonalEdgeStyle;rounded=0;orthogonalLoop=1;jettySize=auto;html=1;fontSize=14;fontStyle=1" edge="1" parent="1" source="BCLAxjB97PcvfuDEVSwv-13" target="BCLAxjB97PcvfuDEVSwv-16">
          <mxGeometry relative="1" as="geometry" />
        </mxCell>
        <mxCell id="BCLAxjB97PcvfuDEVSwv-13" value="抽取内容中的链接信息，并统计数量" style="rounded=0;whiteSpace=wrap;html=1;fontSize=14;fontStyle=1" vertex="1" parent="1">
          <mxGeometry x="230" y="140" width="120" height="60" as="geometry" />
        </mxCell>
        <mxCell id="BCLAxjB97PcvfuDEVSwv-21" value="" style="edgeStyle=orthogonalEdgeStyle;rounded=0;orthogonalLoop=1;jettySize=auto;html=1;fontSize=14;fontStyle=1" edge="1" parent="1" source="BCLAxjB97PcvfuDEVSwv-16" target="BCLAxjB97PcvfuDEVSwv-20">
          <mxGeometry relative="1" as="geometry" />
        </mxCell>
        <mxCell id="BCLAxjB97PcvfuDEVSwv-16" value="数据脱敏处理" style="rounded=0;whiteSpace=wrap;html=1;fontSize=14;fontStyle=1" vertex="1" parent="1">
          <mxGeometry x="230" y="230" width="120" height="60" as="geometry" />
        </mxCell>
        <mxCell id="BCLAxjB97PcvfuDEVSwv-22" style="edgeStyle=orthogonalEdgeStyle;rounded=0;orthogonalLoop=1;jettySize=auto;html=1;exitX=0.5;exitY=1;exitDx=0;exitDy=0;fontSize=14;fontStyle=1" edge="1" parent="1" source="BCLAxjB97PcvfuDEVSwv-20" target="BCLAxjB97PcvfuDEVSwv-7">
          <mxGeometry relative="1" as="geometry" />
        </mxCell>
        <mxCell id="BCLAxjB97PcvfuDEVSwv-23" value="&lt;span&gt;&lt;font&gt;摆渡脱敏后的数据&lt;/font&gt;&lt;/span&gt;" style="edgeLabel;html=1;align=center;verticalAlign=middle;resizable=0;points=[];fontSize=14;fontStyle=1" vertex="1" connectable="0" parent="BCLAxjB97PcvfuDEVSwv-22">
          <mxGeometry x="0.1" y="-4" relative="1" as="geometry">
            <mxPoint as="offset" />
          </mxGeometry>
        </mxCell>
        <mxCell id="BCLAxjB97PcvfuDEVSwv-20" value="导出识别结果" style="rounded=0;whiteSpace=wrap;html=1;fontSize=14;fontStyle=1" vertex="1" parent="1">
          <mxGeometry x="230" y="320" width="120" height="60" as="geometry" />
        </mxCell>
        <mxCell id="BCLAxjB97PcvfuDEVSwv-27" value="" style="edgeStyle=orthogonalEdgeStyle;rounded=0;orthogonalLoop=1;jettySize=auto;html=1;fontSize=14;fontStyle=1" edge="1" parent="1" source="BCLAxjB97PcvfuDEVSwv-24" target="BCLAxjB97PcvfuDEVSwv-26">
          <mxGeometry relative="1" as="geometry" />
        </mxCell>
        <mxCell id="BCLAxjB97PcvfuDEVSwv-24" value="将网址与页面截图进行匹配" style="rounded=0;whiteSpace=wrap;html=1;fontSize=14;fontStyle=1" vertex="1" parent="1">
          <mxGeometry x="230" y="526" width="120" height="60" as="geometry" />
        </mxCell>
        <mxCell id="BCLAxjB97PcvfuDEVSwv-32" value="" style="edgeStyle=orthogonalEdgeStyle;rounded=0;orthogonalLoop=1;jettySize=auto;html=1;fontSize=14;fontStyle=1" edge="1" parent="1" source="BCLAxjB97PcvfuDEVSwv-26" target="BCLAxjB97PcvfuDEVSwv-31">
          <mxGeometry relative="1" as="geometry" />
        </mxCell>
        <mxCell id="BCLAxjB97PcvfuDEVSwv-26" value="整合链接与截图等信息生成excel" style="rounded=0;whiteSpace=wrap;html=1;fontSize=14;fontStyle=1" vertex="1" parent="1">
          <mxGeometry x="400" y="526" width="120" height="60" as="geometry" />
        </mxCell>
        <mxCell id="BCLAxjB97PcvfuDEVSwv-35" value="" style="edgeStyle=orthogonalEdgeStyle;rounded=0;orthogonalLoop=1;jettySize=auto;html=1;fontSize=14;fontStyle=1" edge="1" parent="1" source="BCLAxjB97PcvfuDEVSwv-28" target="BCLAxjB97PcvfuDEVSwv-34">
          <mxGeometry relative="1" as="geometry" />
        </mxCell>
        <mxCell id="BCLAxjB97PcvfuDEVSwv-40" value="" style="edgeStyle=orthogonalEdgeStyle;rounded=0;orthogonalLoop=1;jettySize=auto;html=1;fontSize=14;fontStyle=1" edge="1" parent="1" source="BCLAxjB97PcvfuDEVSwv-28" target="BCLAxjB97PcvfuDEVSwv-39">
          <mxGeometry relative="1" as="geometry" />
        </mxCell>
        <mxCell id="BCLAxjB97PcvfuDEVSwv-28" value="录入“翻墙”网址数据" style="rounded=0;whiteSpace=wrap;html=1;fontSize=14;fontStyle=1" vertex="1" parent="1">
          <mxGeometry x="400" y="230" width="120" height="60" as="geometry" />
        </mxCell>
        <mxCell id="BCLAxjB97PcvfuDEVSwv-33" style="edgeStyle=orthogonalEdgeStyle;rounded=0;orthogonalLoop=1;jettySize=auto;html=1;entryX=0.5;entryY=1;entryDx=0;entryDy=0;fontSize=14;fontStyle=1" edge="1" parent="1" source="BCLAxjB97PcvfuDEVSwv-31" target="BCLAxjB97PcvfuDEVSwv-28">
          <mxGeometry relative="1" as="geometry" />
        </mxCell>
        <mxCell id="BCLAxjB97PcvfuDEVSwv-47" value="&lt;span style=&quot;font-size: 14px; font-weight: 700;&quot;&gt;摆渡“翻墙”网址&lt;/span&gt;" style="edgeLabel;html=1;align=center;verticalAlign=middle;resizable=0;points=[];" vertex="1" connectable="0" parent="BCLAxjB97PcvfuDEVSwv-33">
          <mxGeometry x="-0.1667" y="-3" relative="1" as="geometry">
            <mxPoint x="-3" y="32" as="offset" />
          </mxGeometry>
        </mxCell>
        <mxCell id="BCLAxjB97PcvfuDEVSwv-31" value="判定哪些网址为涉“翻墙”网址" style="rounded=0;whiteSpace=wrap;html=1;fontSize=14;fontStyle=1" vertex="1" parent="1">
          <mxGeometry x="400" y="440" width="120" height="60" as="geometry" />
        </mxCell>
        <mxCell id="BCLAxjB97PcvfuDEVSwv-45" style="edgeStyle=orthogonalEdgeStyle;rounded=0;orthogonalLoop=1;jettySize=auto;html=1;exitX=0.5;exitY=0;exitDx=0;exitDy=0;entryX=0.5;entryY=1;entryDx=0;entryDy=0;fontSize=14;fontStyle=1" edge="1" parent="1" source="BCLAxjB97PcvfuDEVSwv-34" target="BCLAxjB97PcvfuDEVSwv-44">
          <mxGeometry relative="1" as="geometry" />
        </mxCell>
        <mxCell id="BCLAxjB97PcvfuDEVSwv-34" value="通过MQ将判定为发送爬取结果" style="rounded=0;whiteSpace=wrap;html=1;fontSize=14;fontStyle=1" vertex="1" parent="1">
          <mxGeometry x="400" y="50" width="120" height="60" as="geometry" />
        </mxCell>
        <mxCell id="BCLAxjB97PcvfuDEVSwv-39" value="定期对爬取结果进行统计" style="rounded=0;whiteSpace=wrap;html=1;fontSize=14;fontStyle=1" vertex="1" parent="1">
          <mxGeometry x="560" y="230" width="120" height="60" as="geometry" />
        </mxCell>
        <mxCell id="BCLAxjB97PcvfuDEVSwv-43" value="导入采集到的原始短彩信数据" style="rounded=1;whiteSpace=wrap;html=1;fontSize=14;fontStyle=1" vertex="1" parent="1">
          <mxGeometry x="230" y="-40" width="120" height="60" as="geometry" />
        </mxCell>
        <mxCell id="BCLAxjB97PcvfuDEVSwv-44" value="流程结束" style="rounded=1;whiteSpace=wrap;html=1;fontSize=14;fontStyle=1" vertex="1" parent="1">
          <mxGeometry x="400" y="-40" width="120" height="60" as="geometry" />
        </mxCell>
        <mxCell id="BCLAxjB97PcvfuDEVSwv-48" style="edgeStyle=orthogonalEdgeStyle;rounded=0;orthogonalLoop=1;jettySize=auto;html=1;exitX=0.5;exitY=1;exitDx=0;exitDy=0;entryX=0.5;entryY=0;entryDx=0;entryDy=0;fontSize=14;fontStyle=1" edge="1" parent="1" source="BCLAxjB97PcvfuDEVSwv-49" target="BCLAxjB97PcvfuDEVSwv-57">
          <mxGeometry relative="1" as="geometry" />
        </mxCell>
        <mxCell id="BCLAxjB97PcvfuDEVSwv-49" value="模型识别涉“fq”短彩信" style="rounded=0;whiteSpace=wrap;html=1;fontSize=14;fontStyle=1" vertex="1" parent="1">
          <mxGeometry x="270" y="1130" width="120" height="60" as="geometry" />
        </mxCell>
        <mxCell id="BCLAxjB97PcvfuDEVSwv-51" value="" style="edgeStyle=orthogonalEdgeStyle;rounded=0;orthogonalLoop=1;jettySize=auto;html=1;fontSize=14;fontStyle=1" edge="1" parent="1" source="BCLAxjB97PcvfuDEVSwv-52" target="BCLAxjB97PcvfuDEVSwv-64">
          <mxGeometry relative="1" as="geometry" />
        </mxCell>
        <mxCell id="BCLAxjB97PcvfuDEVSwv-52" value="爬取网址对应的页面" style="rounded=0;whiteSpace=wrap;html=1;fontSize=14;fontStyle=1" vertex="1" parent="1">
          <mxGeometry x="270" y="1516" width="120" height="60" as="geometry" />
        </mxCell>
        <mxCell id="BCLAxjB97PcvfuDEVSwv-53" value="" style="endArrow=none;dashed=1;html=1;rounded=0;fontSize=14;fontStyle=1" edge="1" parent="1">
          <mxGeometry width="50" height="50" relative="1" as="geometry">
            <mxPoint x="90" y="1490" as="sourcePoint" />
            <mxPoint x="720" y="1490" as="targetPoint" />
          </mxGeometry>
        </mxCell>
        <mxCell id="BCLAxjB97PcvfuDEVSwv-54" value="外网" style="text;html=1;align=center;verticalAlign=middle;whiteSpace=wrap;rounded=0;fontSize=14;fontStyle=1" vertex="1" parent="1">
          <mxGeometry x="90" y="1511" width="60" height="30" as="geometry" />
        </mxCell>
        <mxCell id="BCLAxjB97PcvfuDEVSwv-55" value="内网" style="text;html=1;align=center;verticalAlign=middle;whiteSpace=wrap;rounded=0;fontSize=14;fontStyle=1" vertex="1" parent="1">
          <mxGeometry x="70" y="820" width="60" height="30" as="geometry" />
        </mxCell>
        <mxCell id="BCLAxjB97PcvfuDEVSwv-56" value="" style="edgeStyle=orthogonalEdgeStyle;rounded=0;orthogonalLoop=1;jettySize=auto;html=1;fontSize=14;fontStyle=1" edge="1" parent="1" source="BCLAxjB97PcvfuDEVSwv-57" target="BCLAxjB97PcvfuDEVSwv-59">
          <mxGeometry relative="1" as="geometry" />
        </mxCell>
        <mxCell id="BCLAxjB97PcvfuDEVSwv-57" value="抽取内容中的链接信息，并统计数量" style="rounded=0;whiteSpace=wrap;html=1;fontSize=14;fontStyle=1" vertex="1" parent="1">
          <mxGeometry x="270" y="1220" width="120" height="60" as="geometry" />
        </mxCell>
        <mxCell id="BCLAxjB97PcvfuDEVSwv-58" value="" style="edgeStyle=orthogonalEdgeStyle;rounded=0;orthogonalLoop=1;jettySize=auto;html=1;fontSize=14;fontStyle=1" edge="1" parent="1" source="BCLAxjB97PcvfuDEVSwv-59" target="BCLAxjB97PcvfuDEVSwv-62">
          <mxGeometry relative="1" as="geometry" />
        </mxCell>
        <mxCell id="BCLAxjB97PcvfuDEVSwv-59" value="数据脱敏处理" style="rounded=0;whiteSpace=wrap;html=1;fontSize=14;fontStyle=1" vertex="1" parent="1">
          <mxGeometry x="270" y="1310" width="120" height="60" as="geometry" />
        </mxCell>
        <mxCell id="BCLAxjB97PcvfuDEVSwv-60" style="edgeStyle=orthogonalEdgeStyle;rounded=0;orthogonalLoop=1;jettySize=auto;html=1;exitX=0.5;exitY=1;exitDx=0;exitDy=0;fontSize=14;fontStyle=1" edge="1" parent="1" source="BCLAxjB97PcvfuDEVSwv-62" target="BCLAxjB97PcvfuDEVSwv-52">
          <mxGeometry relative="1" as="geometry" />
        </mxCell>
        <mxCell id="BCLAxjB97PcvfuDEVSwv-61" value="&lt;span&gt;&lt;font&gt;摆渡脱敏后的数据&lt;/font&gt;&lt;/span&gt;" style="edgeLabel;html=1;align=center;verticalAlign=middle;resizable=0;points=[];fontSize=14;fontStyle=1" vertex="1" connectable="0" parent="BCLAxjB97PcvfuDEVSwv-60">
          <mxGeometry x="0.1" y="-4" relative="1" as="geometry">
            <mxPoint as="offset" />
          </mxGeometry>
        </mxCell>
        <mxCell id="BCLAxjB97PcvfuDEVSwv-62" value="导出识别结果" style="rounded=0;whiteSpace=wrap;html=1;fontSize=14;fontStyle=1" vertex="1" parent="1">
          <mxGeometry x="270" y="1400" width="120" height="60" as="geometry" />
        </mxCell>
        <mxCell id="BCLAxjB97PcvfuDEVSwv-63" value="" style="edgeStyle=orthogonalEdgeStyle;rounded=0;orthogonalLoop=1;jettySize=auto;html=1;fontSize=14;fontStyle=1" edge="1" parent="1" source="BCLAxjB97PcvfuDEVSwv-64" target="BCLAxjB97PcvfuDEVSwv-66">
          <mxGeometry relative="1" as="geometry" />
        </mxCell>
        <mxCell id="BCLAxjB97PcvfuDEVSwv-64" value="将网址与页面截图进行匹配" style="rounded=0;whiteSpace=wrap;html=1;fontSize=14;fontStyle=1" vertex="1" parent="1">
          <mxGeometry x="270" y="1606" width="120" height="60" as="geometry" />
        </mxCell>
        <mxCell id="BCLAxjB97PcvfuDEVSwv-65" value="" style="edgeStyle=orthogonalEdgeStyle;rounded=0;orthogonalLoop=1;jettySize=auto;html=1;fontSize=14;fontStyle=1" edge="1" parent="1" source="BCLAxjB97PcvfuDEVSwv-66" target="BCLAxjB97PcvfuDEVSwv-72">
          <mxGeometry relative="1" as="geometry" />
        </mxCell>
        <mxCell id="BCLAxjB97PcvfuDEVSwv-66" value="整合链接与截图等信息生成excel" style="rounded=0;whiteSpace=wrap;html=1;fontSize=14;fontStyle=1" vertex="1" parent="1">
          <mxGeometry x="440" y="1606" width="120" height="60" as="geometry" />
        </mxCell>
        <mxCell id="BCLAxjB97PcvfuDEVSwv-67" value="" style="edgeStyle=orthogonalEdgeStyle;rounded=0;orthogonalLoop=1;jettySize=auto;html=1;fontSize=14;fontStyle=1" edge="1" parent="1" source="BCLAxjB97PcvfuDEVSwv-69" target="BCLAxjB97PcvfuDEVSwv-74">
          <mxGeometry relative="1" as="geometry" />
        </mxCell>
        <mxCell id="BCLAxjB97PcvfuDEVSwv-68" value="" style="edgeStyle=orthogonalEdgeStyle;rounded=0;orthogonalLoop=1;jettySize=auto;html=1;fontSize=14;fontStyle=1" edge="1" parent="1" source="BCLAxjB97PcvfuDEVSwv-69" target="BCLAxjB97PcvfuDEVSwv-75">
          <mxGeometry relative="1" as="geometry" />
        </mxCell>
        <mxCell id="BCLAxjB97PcvfuDEVSwv-69" value="录入“翻墙”网址数据" style="rounded=0;whiteSpace=wrap;html=1;fontSize=14;fontStyle=1" vertex="1" parent="1">
          <mxGeometry x="440" y="1310" width="120" height="60" as="geometry" />
        </mxCell>
        <mxCell id="BCLAxjB97PcvfuDEVSwv-70" style="edgeStyle=orthogonalEdgeStyle;rounded=0;orthogonalLoop=1;jettySize=auto;html=1;entryX=0.5;entryY=1;entryDx=0;entryDy=0;fontSize=14;fontStyle=1" edge="1" parent="1" source="BCLAxjB97PcvfuDEVSwv-72" target="BCLAxjB97PcvfuDEVSwv-69">
          <mxGeometry relative="1" as="geometry" />
        </mxCell>
        <mxCell id="BCLAxjB97PcvfuDEVSwv-71" value="&lt;span style=&quot;font-size: 14px; font-weight: 700;&quot;&gt;摆渡“翻墙”网址&lt;/span&gt;" style="edgeLabel;html=1;align=center;verticalAlign=middle;resizable=0;points=[];" vertex="1" connectable="0" parent="BCLAxjB97PcvfuDEVSwv-70">
          <mxGeometry x="-0.1667" y="-3" relative="1" as="geometry">
            <mxPoint x="-3" y="32" as="offset" />
          </mxGeometry>
        </mxCell>
        <mxCell id="BCLAxjB97PcvfuDEVSwv-72" value="判定哪些网址为涉“翻墙”网址" style="rounded=0;whiteSpace=wrap;html=1;fontSize=14;fontStyle=1" vertex="1" parent="1">
          <mxGeometry x="440" y="1520" width="120" height="60" as="geometry" />
        </mxCell>
        <mxCell id="BCLAxjB97PcvfuDEVSwv-73" style="edgeStyle=orthogonalEdgeStyle;rounded=0;orthogonalLoop=1;jettySize=auto;html=1;exitX=0.5;exitY=0;exitDx=0;exitDy=0;entryX=0.5;entryY=1;entryDx=0;entryDy=0;fontSize=14;fontStyle=1" edge="1" parent="1" source="BCLAxjB97PcvfuDEVSwv-74" target="BCLAxjB97PcvfuDEVSwv-77">
          <mxGeometry relative="1" as="geometry" />
        </mxCell>
        <mxCell id="BCLAxjB97PcvfuDEVSwv-74" value="通过MQ将判定为发送爬取结果" style="rounded=0;whiteSpace=wrap;html=1;fontSize=14;fontStyle=1" vertex="1" parent="1">
          <mxGeometry x="440" y="1130" width="120" height="60" as="geometry" />
        </mxCell>
        <mxCell id="BCLAxjB97PcvfuDEVSwv-75" value="定期对爬取结果进行统计" style="rounded=0;whiteSpace=wrap;html=1;fontSize=14;fontStyle=1" vertex="1" parent="1">
          <mxGeometry x="600" y="1310" width="120" height="60" as="geometry" />
        </mxCell>
        <mxCell id="BCLAxjB97PcvfuDEVSwv-76" value="导入采集到的原始短彩信数据" style="rounded=1;whiteSpace=wrap;html=1;fontSize=14;fontStyle=1" vertex="1" parent="1">
          <mxGeometry x="180" y="805" width="120" height="60" as="geometry" />
        </mxCell>
        <mxCell id="BCLAxjB97PcvfuDEVSwv-77" value="流程结束" style="rounded=1;whiteSpace=wrap;html=1;fontSize=14;fontStyle=1" vertex="1" parent="1">
          <mxGeometry x="560" y="830" width="120" height="60" as="geometry" />
        </mxCell>
        <mxCell id="BCLAxjB97PcvfuDEVSwv-78" value="识别图片中的图标" style="rounded=0;whiteSpace=wrap;html=1;fontSize=14;fontStyle=1" vertex="1" parent="1">
          <mxGeometry x="70" y="920" width="120" height="60" as="geometry" />
        </mxCell>
        <mxCell id="BCLAxjB97PcvfuDEVSwv-79" value="识别图片中的二维码" style="rounded=0;whiteSpace=wrap;html=1;fontSize=14;fontStyle=1" vertex="1" parent="1">
          <mxGeometry x="210" y="920" width="120" height="60" as="geometry" />
        </mxCell>
        <mxCell id="BCLAxjB97PcvfuDEVSwv-81" value="识别图片中的二维码" style="rounded=0;whiteSpace=wrap;html=1;fontSize=14;fontStyle=1" vertex="1" parent="1">
          <mxGeometry x="350" y="920" width="120" height="60" as="geometry" />
        </mxCell>
      </root>
    </mxGraphModel>
  </diagram>
</mxfile>
